<?xml version="1.0" encoding="UTF-8"?>
<svg xmlns="http://www.w3.org/2000/svg" version="1.1" width="100" height="100" viewBox="0 0 100 100"><rect x="0" y="0" width="100" height="100" fill="#ffffff"/><g transform="scale(3.448)"><g transform="translate(0,0)"><path fill-rule="evenodd" d="M9 0L9 1L8 1L8 3L9 3L9 4L8 4L8 8L6 8L6 9L8 9L8 8L10 8L10 10L9 10L9 11L8 11L8 10L6 10L6 11L5 11L5 12L4 12L4 10L5 10L5 9L4 9L4 8L3 8L3 9L2 9L2 8L0 8L0 9L2 9L2 10L0 10L0 12L1 12L1 14L0 14L0 15L2 15L2 16L1 16L1 18L0 18L0 19L1 19L1 18L3 18L3 19L4 19L4 20L2 20L2 21L4 21L4 20L6 20L6 21L8 21L8 23L9 23L9 25L8 25L8 26L10 26L10 24L11 24L11 27L8 27L8 29L10 29L10 28L12 28L12 29L14 29L14 28L12 28L12 24L14 24L14 25L13 25L13 27L15 27L15 25L16 25L16 26L17 26L17 27L16 27L16 29L22 29L22 27L21 27L21 25L22 25L22 26L24 26L24 28L23 28L23 29L25 29L25 27L27 27L27 29L28 29L28 27L29 27L29 26L28 26L28 25L29 25L29 23L28 23L28 22L29 22L29 21L27 21L27 20L29 20L29 17L28 17L28 15L29 15L29 14L25 14L25 15L24 15L24 14L23 14L23 15L22 15L22 13L23 13L23 11L26 11L26 12L25 12L25 13L26 13L26 12L27 12L27 13L29 13L29 12L28 12L28 10L29 10L29 9L28 9L28 8L26 8L26 9L25 9L25 8L22 8L22 9L21 9L21 8L20 8L20 10L18 10L18 12L17 12L17 13L16 13L16 14L17 14L17 15L13 15L13 12L12 12L12 13L9 13L9 11L11 11L11 10L12 10L12 9L11 9L11 8L10 8L10 7L11 7L11 6L12 6L12 8L13 8L13 6L14 6L14 8L15 8L15 9L14 9L14 10L16 10L16 9L17 9L17 8L18 8L18 7L19 7L19 6L20 6L20 7L21 7L21 5L18 5L18 7L17 7L17 6L16 6L16 7L17 7L17 8L15 8L15 4L16 4L16 5L17 5L17 4L16 4L16 3L18 3L18 4L20 4L20 3L21 3L21 1L20 1L20 0L19 0L19 1L20 1L20 3L19 3L19 2L16 2L16 1L17 1L17 0L16 0L16 1L14 1L14 0L12 0L12 1L11 1L11 2L9 2L9 1L10 1L10 0ZM14 2L14 3L16 3L16 2ZM12 3L12 4L9 4L9 5L10 5L10 6L9 6L9 7L10 7L10 6L11 6L11 5L12 5L12 6L13 6L13 3ZM23 9L23 10L22 10L22 11L23 11L23 10L25 10L25 9ZM26 9L26 10L28 10L28 9ZM2 10L2 11L1 11L1 12L3 12L3 10ZM20 10L20 11L19 11L19 12L18 12L18 15L19 15L19 16L18 16L18 17L16 17L16 16L15 16L15 17L13 17L13 16L12 16L12 14L11 14L11 16L10 16L10 17L11 17L11 19L12 19L12 20L13 20L13 21L14 21L14 22L15 22L15 23L14 23L14 24L15 24L15 23L16 23L16 25L17 25L17 24L18 24L18 23L19 23L19 25L20 25L20 20L23 20L23 19L22 19L22 17L24 17L24 18L25 18L25 19L24 19L24 20L25 20L25 23L27 23L27 22L26 22L26 20L27 20L27 18L28 18L28 17L27 17L27 15L26 15L26 16L22 16L22 17L21 17L21 14L19 14L19 12L21 12L21 13L22 13L22 12L21 12L21 10ZM6 11L6 12L7 12L7 13L6 13L6 14L5 14L5 13L4 13L4 14L2 14L2 15L4 15L4 16L3 16L3 17L5 17L5 16L7 16L7 15L6 15L6 14L7 14L7 13L8 13L8 14L9 14L9 15L8 15L8 17L6 17L6 18L7 18L7 19L6 19L6 20L7 20L7 19L9 19L9 18L8 18L8 17L9 17L9 15L10 15L10 14L9 14L9 13L8 13L8 12L7 12L7 11ZM14 11L14 12L16 12L16 11ZM4 14L4 15L5 15L5 14ZM11 16L11 17L12 17L12 16ZM19 16L19 17L18 17L18 18L16 18L16 19L17 19L17 20L18 20L18 21L19 21L19 17L20 17L20 16ZM25 17L25 18L26 18L26 17ZM13 18L13 20L14 20L14 21L15 21L15 20L14 20L14 18ZM20 18L20 19L21 19L21 18ZM0 20L0 21L1 21L1 20ZM9 20L9 21L10 21L10 22L9 22L9 23L10 23L10 22L11 22L11 20ZM21 21L21 24L24 24L24 21ZM16 22L16 23L18 23L18 22ZM22 22L22 23L23 23L23 22ZM25 24L25 25L28 25L28 24ZM27 26L27 27L28 27L28 26ZM0 0L0 7L7 7L7 0ZM1 1L1 6L6 6L6 1ZM2 2L2 5L5 5L5 2ZM22 0L22 7L29 7L29 0ZM23 1L23 6L28 6L28 1ZM24 2L24 5L27 5L27 2ZM0 22L0 29L7 29L7 22ZM1 23L1 28L6 28L6 23ZM2 24L2 27L5 27L5 24Z" fill="#000000"/></g></g></svg>
